<svg width="383" height="363" xmlns="http://www.w3.org/2000/svg">

 <g>
  <title>background</title>
  <rect fill="none" id="canvas_background" height="365" width="385" y="-1" x="-1"/>
 </g>
 <g>
  <title>Layer 1</title>
  <path fill="#7a7a7a" stroke="null" id="svg_1" d="m39.631583,163.052631a7.631579,7.631579 0 0 1 -7.631579,-7.631579a7.631579,7.631579 0 0 1 7.631579,-7.631579l61.052631,0a15.263158,15.263158 0 0 0 15.263158,-15.263158a15.263158,15.263158 0 0 0 -15.263158,-15.263158c-4.197368,0 -8.013158,1.678947 -10.760526,4.502632c-2.976316,3.128947 -7.860526,3.128947 -10.836842,0c-2.976316,-2.976316 -2.976316,-7.860526 0,-10.836842c5.571053,-5.494737 13.202632,-8.928947 21.597368,-8.928947a30.526316,30.526316 0 0 1 30.526316,30.526316a30.526316,30.526316 0 0 1 -30.526316,30.526316l-61.052631,0m114.473684,15.263158a7.631579,7.631579 0 0 0 7.631579,-7.631579a7.631579,7.631579 0 0 0 -7.631579,-7.631579c-2.136842,0 -4.044737,0.839474 -5.418421,2.213158c-2.976316,2.976316 -7.784211,2.976316 -10.760526,0c-2.9,-2.976316 -2.9,-7.784211 0,-10.760526c4.121053,-4.121053 9.844737,-6.715789 16.178947,-6.715789a22.894737,22.894737 0 0 1 22.894737,22.894737a22.894737,22.894737 0 0 1 -22.894737,22.894737l-106.842105,0a7.631579,7.631579 0 0 1 -7.631579,-7.631579a7.631579,7.631579 0 0 1 7.631579,-7.631579l106.842105,0m-7.631579,45.789474l-106.842105,0a7.631579,7.631579 0 0 1 -7.631579,-7.631579a7.631579,7.631579 0 0 1 7.631579,-7.631579l106.842105,0a22.894737,22.894737 0 0 1 22.894737,22.894737a22.894737,22.894737 0 0 1 -22.894737,22.894737c-6.334211,0 -12.057895,-2.594737 -16.178947,-6.715789c-2.9,-2.976316 -2.9,-7.784211 0,-10.760526c2.976316,-2.976316 7.784211,-2.976316 10.760526,0c1.373684,1.373684 3.281579,2.213158 5.418421,2.213158a7.631579,7.631579 0 0 0 7.631579,-7.631579a7.631579,7.631579 0 0 0 -7.631579,-7.631579z"/>
  <path fill="#7a7a7a" stroke="null" id="svg_2" d="m216.052646,165.157894a8.052631,8.052631 0 0 1 -8.052631,-8.052631a8.052631,8.052631 0 0 1 8.052631,-8.052631l64.421047,0a16.105262,16.105262 0 0 0 16.105262,-16.105262a16.105262,16.105262 0 0 0 -16.105262,-16.105262c-4.428947,0 -8.455262,1.771579 -11.35421,4.751052c-3.140526,3.301579 -8.29421,3.301579 -11.434736,0c-3.140526,-3.140526 -3.140526,-8.29421 0,-11.434736c5.878421,-5.797894 13.931051,-9.421578 22.788946,-9.421578a32.210524,32.210524 0 0 1 32.210524,32.210524a32.210524,32.210524 0 0 1 -32.210524,32.210524l-64.421047,0m120.789464,16.105262a8.052631,8.052631 0 0 0 8.052631,-8.052631a8.052631,8.052631 0 0 0 -8.052631,-8.052631c-2.254737,0 -4.267894,0.885789 -5.717368,2.335263c-3.140526,3.140526 -8.213684,3.140526 -11.35421,0c-3.06,-3.140526 -3.06,-8.213684 0,-11.35421c4.348421,-4.348421 10.387894,-7.086315 17.071578,-7.086315a24.157893,24.157893 0 0 1 24.157893,24.157893a24.157893,24.157893 0 0 1 -24.157893,24.157893l-112.736833,0a8.052631,8.052631 0 0 1 -8.052631,-8.052631a8.052631,8.052631 0 0 1 8.052631,-8.052631l112.736833,0m-8.052631,48.315786l-112.736833,0a8.052631,8.052631 0 0 1 -8.052631,-8.052631a8.052631,8.052631 0 0 1 8.052631,-8.052631l112.736833,0a24.157893,24.157893 0 0 1 24.157893,24.157893a24.157893,24.157893 0 0 1 -24.157893,24.157893c-6.683684,0 -12.723157,-2.737895 -17.071578,-7.086315c-3.06,-3.140526 -3.06,-8.213684 0,-11.35421c3.140526,-3.140526 8.213684,-3.140526 11.35421,0c1.449474,1.449474 3.462631,2.335263 5.717368,2.335263a8.052631,8.052631 0 0 0 8.052631,-8.052631a8.052631,8.052631 0 0 0 -8.052631,-8.052631z"/>
 </g>
</svg>