<svg width="383" height="363" xmlns="http://www.w3.org/2000/svg">

 <g>
  <title>background</title>
  <rect fill="none" id="canvas_background" height="365" width="385" y="-1" x="-1"/>
 </g>
 <g>
  <title>Layer 1</title>
  <path fill="#7a7a7a" stroke="null" id="svg_1" d="m132.631583,163.052631a7.631579,7.631579 0 0 1 -7.631579,-7.631579a7.631579,7.631579 0 0 1 7.631579,-7.631579l61.052631,0a15.263158,15.263158 0 0 0 15.263158,-15.263158a15.263158,15.263158 0 0 0 -15.263158,-15.263158c-4.197368,0 -8.013158,1.678947 -10.760526,4.502632c-2.976316,3.128947 -7.860526,3.128947 -10.836842,0c-2.976316,-2.976316 -2.976316,-7.860526 0,-10.836842c5.571053,-5.494737 13.202632,-8.928947 21.597368,-8.928947a30.526316,30.526316 0 0 1 30.526316,30.526316a30.526316,30.526316 0 0 1 -30.526316,30.526316l-61.052631,0m114.473684,15.263158a7.631579,7.631579 0 0 0 7.631579,-7.631579a7.631579,7.631579 0 0 0 -7.631579,-7.631579c-2.136842,0 -4.044737,0.839474 -5.418421,2.213158c-2.976316,2.976316 -7.784211,2.976316 -10.760526,0c-2.9,-2.976316 -2.9,-7.784211 0,-10.760526c4.121053,-4.121053 9.844737,-6.715789 16.178947,-6.715789a22.894737,22.894737 0 0 1 22.894737,22.894737a22.894737,22.894737 0 0 1 -22.894737,22.894737l-106.842105,0a7.631579,7.631579 0 0 1 -7.631579,-7.631579a7.631579,7.631579 0 0 1 7.631579,-7.631579l106.842105,0m-7.631579,45.789474l-106.842105,0a7.631579,7.631579 0 0 1 -7.631579,-7.631579a7.631579,7.631579 0 0 1 7.631579,-7.631579l106.842105,0a22.894737,22.894737 0 0 1 22.894737,22.894737a22.894737,22.894737 0 0 1 -22.894737,22.894737c-6.334211,0 -12.057895,-2.594737 -16.178947,-6.715789c-2.9,-2.976316 -2.9,-7.784211 0,-10.760526c2.976316,-2.976316 7.784211,-2.976316 10.760526,0c1.373684,1.373684 3.281579,2.213158 5.418421,2.213158a7.631579,7.631579 0 0 0 7.631579,-7.631579a7.631579,7.631579 0 0 0 -7.631579,-7.631579z"/>
 </g>
</svg>